<svg preserveAspectRatio="xMidYMid meet" data-bbox="0 0.114 148 54.199" xmlns="http://www.w3.org/2000/svg" viewBox="0 0 148 55" height="55" width="148" data-type="ugc" role="presentation" aria-hidden="true" aria-label="">
    <g>
        <path fill="#4F5063" d="M0 25.797v27.929l38.806-14.64z"></path>
        <path fill="#4F5063" d="M65.902 28.56V.114l-38.946 15.11z"></path>
        <path fill="url(#4a0e90d8-f9df-49fb-8249-49aa3c534094_comp-m6zggiw9)" d="m0 25.797 38.806 13.29L65.902 28.56 26.957 15.225z"></path>
        <path fill="#9EA4B0" d="m77.597 49.794 3.023-2.524c1.238 2.075 3.526 3.474 6.592 3.474 2.708 0 3.968-.65 3.968-2.05 0-1.099-.63-1.55-2.414-1.774l-4.577-.6c-3.653-.475-5.395-2.074-5.395-5.35 0-3.523 2.876-5.598 7.977-5.598 3.78 0 6.718 1.175 8.566 3.65L92.67 41.69c-1.113-1.75-3.255-2.824-6.11-2.824-2.31 0-3.569.65-3.569 1.85 0 1.1.63 1.524 2.54 1.774l4.115.476c4.115.499 5.816 1.949 5.816 5.249 0 3.924-3.087 6.098-8.46 6.098-4.409.004-7.873-1.72-9.406-4.52"></path>
        <path fill="#9EA4B0" d="M97.1 50.269c0-1.2.442-2.2 1.324-2.85.797-.6 1.931-.974 4.114-1.124l5.501-.375v-.3c0-1.372-1.133-2.1-3.002-2.1-1.911 0-3.108.726-3.338 1.975h-4.304c.42-2.9 3.401-4.748 7.642-4.748 4.913 0 7.075 1.924 7.075 5.624v3.445c0 1.75.064 2.9.189 3.905h-4.03c-.084-.6-.127-1.55-.148-2.3-.84 1.774-2.876 2.775-5.774 2.775-3.316-.002-5.248-1.403-5.248-3.927m10.981-1.85v-.422l-4.219.35c-1.933.176-2.583.625-2.583 1.6 0 1.025.945 1.575 2.583 1.575 2.498-.004 4.219-1.203 4.219-3.103"></path>
        <path fill="#9EA4B0" d="M119.524 53.72h-4.032V35.598h4.032z"></path>
        <path fill="#9EA4B0" d="M122.946 35.546h4.262v3.85h-4.262zm.126 5.674h4.031v12.5h-4.031z"></path>
        <path fill="#9EA4B0" d="m137.81 47.917-3.128 2.6v3.204h-4.032V35.597h4.032V46.42l5.92-5.2h5.333l-5.039 4.425 5.249 8.076h-4.619z"></path>
        <path fill="#9EA4B0" d="M143.827 23.09c.014.362-.043.724-.166 1.063a2.7 2.7 0 0 1-.553.91c-.24.261-.53.47-.849.611a2.5 2.5 0 0 1-2.024 0 2.6 2.6 0 0 1-.849-.611 2.7 2.7 0 0 1-.553-.91c-.123-.34-.18-.7-.166-1.063v-4.738l-4.198 1.093v3.694c0 .7-.267 1.374-.743 1.87a2.48 2.48 0 0 1-1.793.774 2.48 2.48 0 0 1-1.792-.774 2.7 2.7 0 0 1-.743-1.87v-2.374l-4.171 1.087v1.012c0 .384-.072.763-.213 1.118a2.9 2.9 0 0 1-.607.947 2.8 2.8 0 0 1-.908.633 2.7 2.7 0 0 1-2.143 0 2.8 2.8 0 0 1-.908-.633 2.9 2.9 0 0 1-.607-.947 3 3 0 0 1-.213-1.118V10.862h-4.194l.031 11.494c0 4.034 2.084 7.226 6.874 7.226 2.674 0 4.572-.766 5.723-2.092.933 1.385 2.675 2.092 4.106 2.092 2.177 0 3.946-.648 5.07-1.827 1.181 1.267 2.613 1.827 4.603 1.827 4.047 0 6.159-1.855 6.159-5.743v-7.986l-4.168 1.118z"></path>
        <path fill="#9EA4B0" d="M107.416 10.862v12.054c0 .76-.289 1.49-.805 2.027a2.7 2.7 0 0 1-1.943.84h-.264a2.7 2.7 0 0 1-1.859-.885 2.94 2.94 0 0 1-.759-1.978V10.862h-4.075v12.874c-11.163 4.131-15.02 1.291-15.02-1.183v-3.564l-3.888.03v4.326c0 5.643 7.799 9.367 20.37 4.245l-.01-.035c1.214 1.215 3.102 2.018 5.34 2.018 3.792 0 7.081-3.118 7.081-7.22V10.861z"></path>
        <path fill="#9EA4B0" d="m93.177 16.7-2.566.675c-.65.035-1.073-.157-1.174-.622-.139-.633.303-1.07 1.097-1.258.514-.122 1.176-.159 2.082-.105l-.49-2.24c-.87-.185-1.733-.191-2.4-.032-1.79.422-2.963 1.914-2.592 3.608.057.273.166.53.32.759.155.228.352.421.58.568l-1.108.292v2.336l6.251-1.642z"></path>
        <defs fill="none">
            <radialGradient gradientTransform="matrix(67.2885 0 0 70.1857 79.174 43.222)" gradientUnits="userSpaceOnUse" r="1" cy="0" cx="0" id="4a0e90d8-f9df-49fb-8249-49aa3c534094_comp-m6zggiw9">
                <stop stop-color="#E2EFF9"></stop>
                <stop stop-color="#DAE6F1" offset=".21"></stop>
                <stop stop-color="#C5CFDA" offset=".54"></stop>
                <stop stop-color="#A3A9B5" offset=".95"></stop>
                <stop stop-color="#9EA4B0" offset="1"></stop>
            </radialGradient>
        </defs>
    </g>
</svg>